<svg width="57" height="48" viewBox="0 0 57 48" fill="none" xmlns="http://www.w3.org/2000/svg">
<path d="M3.00001 0.0257808C2.06694 0.194519 1.23139 0.775291 0.677171 1.64033C0.122956 2.50537 -0.104529 3.58383 0.0447628 4.63844C0.194054 5.69306 0.707892 6.63745 1.47324 7.26386C2.23858 7.89027 3.19274 8.14738 4.12581 7.97864H14.6803L15.3135 9.96686L18.1984 19.9079L21.0833 29.849C21.3647 30.8829 22.5609 31.8372 23.4756 31.8372H48.1027C49.0877 31.8372 50.2136 30.8829 50.495 29.849L56.1944 9.96686C56.4759 8.93299 56.0537 7.97864 55.0686 7.97864H23.8274L21.1537 2.25258C20.8689 1.59535 20.4291 1.0397 19.8829 0.6468C19.3366 0.253905 18.7051 0.0390105 18.0577 0.0257808L3.98509 0.0257808C3.77443 0.00426446 3.56248 0.00426446 3.35182 0.0257808C3.21122 0.0162288 3.07024 0.0162288 2.92964 0.0257808L3.00001 0.0257808ZM25.2347 39.7901C23.2645 39.7901 21.7166 41.5397 21.7166 43.7665C21.7166 45.9933 23.2645 47.743 25.2347 47.743C27.2049 47.743 28.7529 45.9933 28.7529 43.7665C28.7529 41.5397 27.2049 39.7901 25.2347 39.7901ZM46.3436 39.7901C44.3734 39.7901 42.8254 41.5397 42.8254 43.7665C42.8254 45.9933 44.3734 47.743 46.3436 47.743C48.3138 47.743 49.8617 45.9933 49.8617 43.7665C49.8617 41.5397 48.3138 39.7901 46.3436 39.7901Z" fill="#ffef00"/>
</svg>
